<?xml version="1.0" encoding="UTF-8" standalone="no"?>
<!DOCTYPE svg PUBLIC "-//W3C//DTD SVG 1.1//EN"
 "http://www.w3.org/Graphics/SVG/1.1/DTD/svg11.dtd">
<!-- Generated by graphviz version 2.40.1 (20161225.0304)
 -->
<!-- Title: G Pages: 1 -->
<svg width="321pt" height="211pt"
 viewBox="0.00 0.00 321.22 211.00" xmlns="http://www.w3.org/2000/svg" xmlns:xlink="http://www.w3.org/1999/xlink">
<g id="graph0" class="graph" transform="scale(1 1) rotate(0) translate(4 207)">
<title>G</title>
<polygon fill="#ffffff" stroke="transparent" points="-4,4 -4,-207 317.2236,-207 317.2236,4 -4,4"/>
<g id="clust1" class="cluster">
<title>cluster_Global</title>
<path fill="none" stroke="#c0c0c0" d="M20,-8C20,-8 293.2236,-8 293.2236,-8 299.2236,-8 305.2236,-14 305.2236,-20 305.2236,-20 305.2236,-183 305.2236,-183 305.2236,-189 299.2236,-195 293.2236,-195 293.2236,-195 20,-195 20,-195 14,-195 8,-189 8,-183 8,-183 8,-20 8,-20 8,-14 14,-8 20,-8"/>
<text text-anchor="middle" x="156.6118" y="-182.2" font-family="Times,serif" font-size="11.00" fill="#c0c0c0">Global</text>
</g>
<g id="clust2" class="cluster">
<title>cluster_\blog404de</title>
<path fill="none" stroke="#c0c0c0" d="M28,-16C28,-16 285.2236,-16 285.2236,-16 291.2236,-16 297.2236,-22 297.2236,-28 297.2236,-28 297.2236,-156 297.2236,-156 297.2236,-162 291.2236,-168 285.2236,-168 285.2236,-168 28,-168 28,-168 22,-168 16,-162 16,-156 16,-156 16,-28 16,-28 16,-22 22,-16 28,-16"/>
<text text-anchor="middle" x="156.6118" y="-155.2" font-family="Times,serif" font-size="11.00" fill="#c0c0c0">blog404de</text>
</g>
<g id="clust3" class="cluster">
<title>cluster_\blog404de\WetterScripts</title>
<path fill="none" stroke="#c0c0c0" d="M36,-70C36,-70 277.2236,-70 277.2236,-70 283.2236,-70 289.2236,-76 289.2236,-82 289.2236,-82 289.2236,-129 289.2236,-129 289.2236,-135 283.2236,-141 277.2236,-141 277.2236,-141 36,-141 36,-141 30,-141 24,-135 24,-129 24,-129 24,-82 24,-82 24,-76 30,-70 36,-70"/>
<text text-anchor="middle" x="156.6118" y="-128.2" font-family="Times,serif" font-size="11.00" fill="#c0c0c0">WetterScripts</text>
</g>
<!-- \\blog404de\\WetterScripts\\WarnParser -->
<g id="node1" class="node">
<title>\\blog404de\\WetterScripts\\WarnParser</title>
<polygon fill="none" stroke="#000000" points="281.229,-114 199.2075,-114 199.2075,-78 281.229,-78 281.229,-114"/>
<text text-anchor="middle" x="240.2183" y="-92.7" font-family="Courier,monospace" font-size="11.00" fill="#000000">WarnParser</text>
</g>
<!-- \\blog404de\\WetterScripts\\ErrorLogging -->
<g id="node2" class="node">
<title>\\blog404de\\WetterScripts\\ErrorLogging</title>
<polygon fill="none" stroke="#000000" points="127.3196,-114 31.8933,-114 31.8933,-78 127.3196,-78 127.3196,-114"/>
<text text-anchor="middle" x="79.6064" y="-92.7" font-family="Courier,monospace" font-size="11.00" fill="#000000">ErrorLogging</text>
</g>
<!-- \\blog404de\\WetterScripts\\WarnParser&#45;&gt;\\blog404de\\WetterScripts\\ErrorLogging -->
<g id="edge1" class="edge">
<title>\\blog404de\\WetterScripts\\WarnParser&#45;&gt;\\blog404de\\WetterScripts\\ErrorLogging</title>
<path fill="none" stroke="#000000" d="M198.8567,-96C180.1714,-96 157.7745,-96 137.4615,-96"/>
<polygon fill="none" stroke="#000000" points="137.3723,-92.5001 127.3723,-96 137.3723,-99.5001 137.3723,-92.5001"/>
</g>
<!-- \\blog404de\\Toolbox -->
<g id="node3" class="node">
<title>\\blog404de\\Toolbox</title>
<polygon fill="none" stroke="#000000" points="271.4261,-60 209.0104,-60 209.0104,-24 271.4261,-24 271.4261,-60"/>
<text text-anchor="middle" x="240.2183" y="-38.7" font-family="Courier,monospace" font-size="11.00" fill="#000000">Toolbox</text>
</g>
</g>
</svg>
