<?xml version="1.0" encoding="UTF-8" standalone="no"?>
<!DOCTYPE svg PUBLIC "-//W3C//DTD SVG 1.1//EN"
 "http://www.w3.org/Graphics/SVG/1.1/DTD/svg11.dtd">
<!-- Generated by graphviz version 2.40.1 (20161225.0304)
 -->
<!-- Title: G Pages: 1 -->
<svg width="321pt" height="219pt"
 viewBox="0.00 0.00 321.22 219.00" xmlns="http://www.w3.org/2000/svg" xmlns:xlink="http://www.w3.org/1999/xlink">
<g id="graph0" class="graph" transform="scale(1 1) rotate(0) translate(4 215)">
<title>G</title>
<polygon fill="#ffffff" stroke="transparent" points="-4,4 -4,-215 317.2236,-215 317.2236,4 -4,4"/>
<g id="clust1" class="cluster">
<title>cluster_Global</title>
<path fill="none" stroke="#c0c0c0" d="M20,-8C20,-8 293.2236,-8 293.2236,-8 299.2236,-8 305.2236,-14 305.2236,-20 305.2236,-20 305.2236,-191 305.2236,-191 305.2236,-197 299.2236,-203 293.2236,-203 293.2236,-203 20,-203 20,-203 14,-203 8,-197 8,-191 8,-191 8,-20 8,-20 8,-14 14,-8 20,-8"/>
<text text-anchor="middle" x="156.6118" y="-190.2" font-family="Times,serif" font-size="11.00" fill="#c0c0c0">Global</text>
</g>
<g id="clust2" class="cluster">
<title>cluster_\blog404de</title>
<path fill="none" stroke="#c0c0c0" d="M28,-16C28,-16 285.2236,-16 285.2236,-16 291.2236,-16 297.2236,-22 297.2236,-28 297.2236,-28 297.2236,-164 297.2236,-164 297.2236,-170 291.2236,-176 285.2236,-176 285.2236,-176 28,-176 28,-176 22,-176 16,-170 16,-164 16,-164 16,-28 16,-28 16,-22 22,-16 28,-16"/>
<text text-anchor="middle" x="156.6118" y="-163.2" font-family="Times,serif" font-size="11.00" fill="#c0c0c0">blog404de</text>
</g>
<g id="clust3" class="cluster">
<title>cluster_\blog404de\WetterScripts</title>
<path fill="none" stroke="#c0c0c0" d="M36,-24C36,-24 277.2236,-24 277.2236,-24 283.2236,-24 289.2236,-30 289.2236,-36 289.2236,-36 289.2236,-137 289.2236,-137 289.2236,-143 283.2236,-149 277.2236,-149 277.2236,-149 36,-149 36,-149 30,-149 24,-143 24,-137 24,-137 24,-36 24,-36 24,-30 30,-24 36,-24"/>
<text text-anchor="middle" x="156.6118" y="-136.2" font-family="Times,serif" font-size="11.00" fill="#c0c0c0">WetterScripts</text>
</g>
<!-- \\blog404de\\WetterScripts\\WarnParser -->
<g id="node1" class="node">
<title>\\blog404de\\WetterScripts\\WarnParser</title>
<polygon fill="none" stroke="#000000" points="281.229,-122 199.2075,-122 199.2075,-86 281.229,-86 281.229,-122"/>
<text text-anchor="middle" x="240.2183" y="-100.7" font-family="Courier,monospace" font-size="11.00" fill="#000000">WarnParser</text>
</g>
<!-- \\blog404de\\WetterScripts\\ErrorLogging -->
<g id="node3" class="node">
<title>\\blog404de\\WetterScripts\\ErrorLogging</title>
<polygon fill="none" stroke="#000000" points="127.3196,-122 31.8933,-122 31.8933,-86 127.3196,-86 127.3196,-122"/>
<text text-anchor="middle" x="79.6064" y="-100.7" font-family="Courier,monospace" font-size="11.00" fill="#000000">ErrorLogging</text>
</g>
<!-- \\blog404de\\WetterScripts\\WarnParser&#45;&gt;\\blog404de\\WetterScripts\\ErrorLogging -->
<g id="edge1" class="edge">
<title>\\blog404de\\WetterScripts\\WarnParser&#45;&gt;\\blog404de\\WetterScripts\\ErrorLogging</title>
<path fill="none" stroke="#000000" d="M198.8567,-104C180.1714,-104 157.7745,-104 137.4615,-104"/>
<polygon fill="none" stroke="#000000" points="137.3723,-100.5001 127.3723,-104 137.3723,-107.5001 137.3723,-100.5001"/>
</g>
<!-- \\blog404de\\WetterScripts\\Toolbox -->
<g id="node2" class="node">
<title>\\blog404de\\WetterScripts\\Toolbox</title>
<polygon fill="none" stroke="#000000" points="271.4261,-68 209.0104,-68 209.0104,-32 271.4261,-32 271.4261,-68"/>
<text text-anchor="middle" x="240.2183" y="-46.7" font-family="Courier,monospace" font-size="11.00" fill="#000000">Toolbox</text>
</g>
</g>
</svg>
