<?xml version="1.0" encoding="UTF-8" standalone="no"?>
<!DOCTYPE svg PUBLIC "-//W3C//DTD SVG 1.1//EN"
 "http://www.w3.org/Graphics/SVG/1.1/DTD/svg11.dtd">
<!-- Generated by graphviz version 2.40.1 (20161225.0304)
 -->
<!-- Title: G Pages: 1 -->
<svg width="705pt" height="566pt"
 viewBox="0.00 0.00 704.65 566.00" xmlns="http://www.w3.org/2000/svg" xmlns:xlink="http://www.w3.org/1999/xlink">
<g id="graph0" class="graph" transform="scale(1 1) rotate(0) translate(4 562)">
<title>G</title>
<polygon fill="#ffffff" stroke="transparent" points="-4,4 -4,-562 700.6548,-562 700.6548,4 -4,4"/>
<g id="clust1" class="cluster">
<title>cluster_Global</title>
<path fill="none" stroke="#c0c0c0" d="M20,-8C20,-8 676.6548,-8 676.6548,-8 682.6548,-8 688.6548,-14 688.6548,-20 688.6548,-20 688.6548,-538 688.6548,-538 688.6548,-544 682.6548,-550 676.6548,-550 676.6548,-550 20,-550 20,-550 14,-550 8,-544 8,-538 8,-538 8,-20 8,-20 8,-14 14,-8 20,-8"/>
<text text-anchor="middle" x="348.3274" y="-537.2" font-family="Times,serif" font-size="11.00" fill="#c0c0c0">Global</text>
</g>
<g id="clust2" class="cluster">
<title>cluster_\blog404de</title>
<path fill="none" stroke="#c0c0c0" d="M28,-16C28,-16 668.6548,-16 668.6548,-16 674.6548,-16 680.6548,-22 680.6548,-28 680.6548,-28 680.6548,-511 680.6548,-511 680.6548,-517 674.6548,-523 668.6548,-523 668.6548,-523 28,-523 28,-523 22,-523 16,-517 16,-511 16,-511 16,-28 16,-28 16,-22 22,-16 28,-16"/>
<text text-anchor="middle" x="348.3274" y="-510.2" font-family="Times,serif" font-size="11.00" fill="#c0c0c0">blog404de</text>
</g>
<g id="clust9" class="cluster">
<title>cluster_\blog404de\Standard</title>
<path fill="none" stroke="#c0c0c0" d="M558.8408,-371C558.8408,-371 646.0537,-371 646.0537,-371 652.0537,-371 658.0537,-377 658.0537,-383 658.0537,-383 658.0537,-484 658.0537,-484 658.0537,-490 652.0537,-496 646.0537,-496 646.0537,-496 558.8408,-496 558.8408,-496 552.8408,-496 546.8408,-490 546.8408,-484 546.8408,-484 546.8408,-383 546.8408,-383 546.8408,-377 552.8408,-371 558.8408,-371"/>
<text text-anchor="middle" x="602.4473" y="-483.2" font-family="Times,serif" font-size="11.00" fill="#c0c0c0">Standard</text>
</g>
<g id="clust3" class="cluster">
<title>cluster_\blog404de\WetterWarnung</title>
<path fill="none" stroke="#c0c0c0" d="M36,-24C36,-24 660.6548,-24 660.6548,-24 666.6548,-24 672.6548,-30 672.6548,-36 672.6548,-36 672.6548,-351 672.6548,-351 672.6548,-357 666.6548,-363 660.6548,-363 660.6548,-363 36,-363 36,-363 30,-363 24,-357 24,-351 24,-351 24,-36 24,-36 24,-30 30,-24 36,-24"/>
<text text-anchor="middle" x="348.3274" y="-350.2" font-family="Times,serif" font-size="11.00" fill="#c0c0c0">WetterWarnung</text>
</g>
<g id="clust7" class="cluster">
<title>cluster_\blog404de\WetterWarnung\Save</title>
<path fill="none" stroke="#c0c0c0" d="M371.8247,-53C371.8247,-53 445.8354,-53 445.8354,-53 451.8354,-53 457.8354,-59 457.8354,-65 457.8354,-65 457.8354,-112 457.8354,-112 457.8354,-118 451.8354,-124 445.8354,-124 445.8354,-124 371.8247,-124 371.8247,-124 365.8247,-124 359.8247,-118 359.8247,-112 359.8247,-112 359.8247,-65 359.8247,-65 359.8247,-59 365.8247,-53 371.8247,-53"/>
<text text-anchor="middle" x="408.8301" y="-111.2" font-family="Times,serif" font-size="11.00" fill="#c0c0c0">Save</text>
</g>
<g id="clust8" class="cluster">
<title>cluster_\blog404de\WetterWarnung\Network</title>
<path fill="none" stroke="#c0c0c0" d="M44,-194C44,-194 98.2075,-194 98.2075,-194 104.2075,-194 110.2075,-200 110.2075,-206 110.2075,-206 110.2075,-253 110.2075,-253 110.2075,-259 104.2075,-265 98.2075,-265 98.2075,-265 44,-265 44,-265 38,-265 32,-259 32,-253 32,-253 32,-206 32,-206 32,-200 38,-194 44,-194"/>
<text text-anchor="middle" x="71.1038" y="-252.2" font-family="Times,serif" font-size="11.00" fill="#c0c0c0">Network</text>
</g>
<g id="clust4" class="cluster">
<title>cluster_\blog404de\WetterWarnung\Action</title>
<path fill="none" stroke="#c0c0c0" d="M355.322,-211C355.322,-211 649.3542,-211 649.3542,-211 655.3542,-211 661.3542,-217 661.3542,-223 661.3542,-223 661.3542,-324 661.3542,-324 661.3542,-330 655.3542,-336 649.3542,-336 649.3542,-336 355.322,-336 355.322,-336 349.322,-336 343.322,-330 343.322,-324 343.322,-324 343.322,-223 343.322,-223 343.322,-217 349.322,-211 355.322,-211"/>
<text text-anchor="middle" x="502.3381" y="-323.2" font-family="Times,serif" font-size="11.00" fill="#c0c0c0">Action</text>
</g>
<g id="clust5" class="cluster">
<title>cluster_\blog404de\WetterWarnung\Reader</title>
<path fill="none" stroke="#c0c0c0" d="M178.2075,-32C178.2075,-32 265.4204,-32 265.4204,-32 271.4204,-32 277.4204,-38 277.4204,-44 277.4204,-44 277.4204,-253 277.4204,-253 277.4204,-259 271.4204,-265 265.4204,-265 265.4204,-265 178.2075,-265 178.2075,-265 172.2075,-265 166.2075,-259 166.2075,-253 166.2075,-253 166.2075,-44 166.2075,-44 166.2075,-38 172.2075,-32 178.2075,-32"/>
<text text-anchor="middle" x="221.814" y="-252.2" font-family="Times,serif" font-size="11.00" fill="#c0c0c0">Reader</text>
</g>
<g id="clust6" class="cluster">
<title>cluster_\blog404de\WetterWarnung\Archive</title>
<path fill="none" stroke="#c0c0c0" d="M345.4204,-132C345.4204,-132 652.6548,-132 652.6548,-132 658.6548,-132 664.6548,-138 664.6548,-144 664.6548,-144 664.6548,-191 664.6548,-191 664.6548,-197 658.6548,-203 652.6548,-203 652.6548,-203 345.4204,-203 345.4204,-203 339.4204,-203 333.4204,-197 333.4204,-191 333.4204,-191 333.4204,-144 333.4204,-144 333.4204,-138 339.4204,-132 345.4204,-132"/>
<text text-anchor="middle" x="499.0376" y="-190.2" font-family="Times,serif" font-size="11.00" fill="#c0c0c0">Archive</text>
</g>
<!-- \\blog404de\\WetterWarnung\\Action\\SendToITFFF -->
<g id="node1" class="node">
<title>\\blog404de\\WetterWarnung\\Action\\SendToITFFF</title>
<polygon fill="none" stroke="#000000" points="646.5599,-309 558.3346,-309 558.3346,-273 646.5599,-273 646.5599,-309"/>
<text text-anchor="middle" x="602.4473" y="-287.7" font-family="Courier,monospace" font-size="11.00" fill="#000000">SendToITFFF</text>
</g>
<!-- \\blog404de\\WetterWarnung\\Action\\SendToInterface -->
<g id="node3" class="node">
<title>\\blog404de\\WetterWarnung\\Action\\SendToInterface</title>
<polygon fill="none" stroke="#000000" points="466.3462,-282 351.314,-282 351.314,-246 466.3462,-246 466.3462,-282"/>
<text text-anchor="middle" x="408.8301" y="-260.7" font-family="Courier,monospace" font-size="11.00" fill="#000000">SendToInterface</text>
</g>
<!-- \\blog404de\\WetterWarnung\\Action\\SendToITFFF&#45;&gt;\\blog404de\\WetterWarnung\\Action\\SendToInterface -->
<g id="edge1" class="edge">
<title>\\blog404de\\WetterWarnung\\Action\\SendToITFFF&#45;&gt;\\blog404de\\WetterWarnung\\Action\\SendToInterface</title>
<path fill="none" stroke="#000000" stroke-dasharray="1,5" d="M558.0276,-284.8057C533.9711,-281.451 503.7382,-277.235 476.7883,-273.4768"/>
<polygon fill="none" stroke="#000000" points="477.0275,-269.9764 466.6399,-272.0616 476.0606,-276.9093 477.0275,-269.9764"/>
</g>
<!-- \\blog404de\\WetterWarnung\\Action\\SendToTwitter -->
<g id="node2" class="node">
<title>\\blog404de\\WetterWarnung\\Action\\SendToTwitter</title>
<polygon fill="none" stroke="#000000" points="653.2614,-255 551.6331,-255 551.6331,-219 653.2614,-219 653.2614,-255"/>
<text text-anchor="middle" x="602.4473" y="-233.7" font-family="Courier,monospace" font-size="11.00" fill="#000000">SendToTwitter</text>
</g>
<!-- \\blog404de\\WetterWarnung\\Action\\SendToTwitter&#45;&gt;\\blog404de\\WetterWarnung\\Action\\SendToInterface -->
<g id="edge5" class="edge">
<title>\\blog404de\\WetterWarnung\\Action\\SendToTwitter&#45;&gt;\\blog404de\\WetterWarnung\\Action\\SendToInterface</title>
<path fill="none" stroke="#000000" stroke-dasharray="1,5" d="M551.5766,-244.0939C528.6321,-247.2936 501.2057,-251.1182 476.5533,-254.556"/>
<polygon fill="none" stroke="#000000" points="475.9614,-251.1046 466.5406,-255.9522 476.9282,-258.0375 475.9614,-251.1046"/>
</g>
<!-- \\blog404de\\WetterWarnung\\Reader\\Parser -->
<g id="node4" class="node">
<title>\\blog404de\\WetterWarnung\\Reader\\Parser</title>
<polygon fill="none" stroke="#000000" points="249.4218,-238 194.2061,-238 194.2061,-202 249.4218,-202 249.4218,-238"/>
<text text-anchor="middle" x="221.814" y="-216.7" font-family="Courier,monospace" font-size="11.00" fill="#000000">Parser</text>
</g>
<!-- \\blog404de\\WetterWarnung\\Network\\Network -->
<g id="node11" class="node">
<title>\\blog404de\\WetterWarnung\\Network\\Network</title>
<polygon fill="none" stroke="#000000" points="102.3116,-238 39.8959,-238 39.8959,-202 102.3116,-202 102.3116,-238"/>
<text text-anchor="middle" x="71.1038" y="-216.7" font-family="Courier,monospace" font-size="11.00" fill="#000000">Network</text>
</g>
<!-- \\blog404de\\WetterWarnung\\Reader\\Parser&#45;&gt;\\blog404de\\WetterWarnung\\Network\\Network -->
<g id="edge6" class="edge">
<title>\\blog404de\\WetterWarnung\\Reader\\Parser&#45;&gt;\\blog404de\\WetterWarnung\\Network\\Network</title>
<path fill="none" stroke="#000000" d="M194.1714,-220C171.3169,-220 138.5154,-220 112.523,-220"/>
<polygon fill="none" stroke="#000000" points="112.2111,-216.5001 102.211,-220 112.211,-223.5001 112.2111,-216.5001"/>
</g>
<!-- \\blog404de\\WetterWarnung\\Reader\\ParserHeader -->
<g id="node5" class="node">
<title>\\blog404de\\WetterWarnung\\Reader\\ParserHeader</title>
<polygon fill="none" stroke="#000000" points="269.5271,-184 174.1008,-184 174.1008,-148 269.5271,-148 269.5271,-184"/>
<text text-anchor="middle" x="221.814" y="-162.7" font-family="Courier,monospace" font-size="11.00" fill="#000000">ParserHeader</text>
</g>
<!-- \\blog404de\\WetterWarnung\\Reader\\ParserGeo -->
<g id="node6" class="node">
<title>\\blog404de\\WetterWarnung\\Reader\\ParserGeo</title>
<polygon fill="none" stroke="#000000" points="259.7248,-130 183.9032,-130 183.9032,-94 259.7248,-94 259.7248,-130"/>
<text text-anchor="middle" x="221.814" y="-108.7" font-family="Courier,monospace" font-size="11.00" fill="#000000">ParserGeo</text>
</g>
<!-- \\blog404de\\WetterWarnung\\Reader\\ParserAlert -->
<g id="node7" class="node">
<title>\\blog404de\\WetterWarnung\\Reader\\ParserAlert</title>
<polygon fill="none" stroke="#000000" points="265.9266,-76 177.7013,-76 177.7013,-40 265.9266,-40 265.9266,-76"/>
<text text-anchor="middle" x="221.814" y="-54.7" font-family="Courier,monospace" font-size="11.00" fill="#000000">ParserAlert</text>
</g>
<!-- \\blog404de\\WetterWarnung\\Archive\\ArchiveToMySQL -->
<g id="node8" class="node">
<title>\\blog404de\\WetterWarnung\\Archive\\ArchiveToMySQL</title>
<polygon fill="none" stroke="#000000" points="656.8631,-176 548.0314,-176 548.0314,-140 656.8631,-140 656.8631,-176"/>
<text text-anchor="middle" x="602.4473" y="-154.7" font-family="Courier,monospace" font-size="11.00" fill="#000000">ArchiveToMySQL</text>
</g>
<!-- \\blog404de\\WetterWarnung\\Archive\\ArchiveToInterface -->
<g id="node9" class="node">
<title>\\blog404de\\WetterWarnung\\Archive\\ArchiveToInterface</title>
<polygon fill="none" stroke="#000000" points="476.1495,-176 341.5106,-176 341.5106,-140 476.1495,-140 476.1495,-176"/>
<text text-anchor="middle" x="408.8301" y="-154.7" font-family="Courier,monospace" font-size="11.00" fill="#000000">ArchiveToInterface</text>
</g>
<!-- \\blog404de\\WetterWarnung\\Archive\\ArchiveToMySQL&#45;&gt;\\blog404de\\WetterWarnung\\Archive\\ArchiveToInterface -->
<g id="edge2" class="edge">
<title>\\blog404de\\WetterWarnung\\Archive\\ArchiveToMySQL&#45;&gt;\\blog404de\\WetterWarnung\\Archive\\ArchiveToInterface</title>
<path fill="none" stroke="#000000" stroke-dasharray="1,5" d="M547.9988,-158C528.8708,-158 506.9943,-158 486.3395,-158"/>
<polygon fill="none" stroke="#000000" points="486.3155,-154.5001 476.3154,-158 486.3154,-161.5001 486.3155,-154.5001"/>
</g>
<!-- \\blog404de\\WetterWarnung\\Save\\SaveToFile -->
<g id="node10" class="node">
<title>\\blog404de\\WetterWarnung\\Save\\SaveToFile</title>
<polygon fill="none" stroke="#000000" points="449.8408,-97 367.8193,-97 367.8193,-61 449.8408,-61 449.8408,-97"/>
<text text-anchor="middle" x="408.8301" y="-75.7" font-family="Courier,monospace" font-size="11.00" fill="#000000">SaveToFile</text>
</g>
<!-- \\blog404de\\WetterWarnung\\Save\\SaveToFile&#45;&gt;\\blog404de\\WetterWarnung\\Reader\\Parser -->
<g id="edge3" class="edge">
<title>\\blog404de\\WetterWarnung\\Save\\SaveToFile&#45;&gt;\\blog404de\\WetterWarnung\\Reader\\Parser</title>
<path fill="none" stroke="#000000" d="M376.594,-97.1508C362.6709,-105.68 346.5908,-116.4968 333.4204,-128 304.7009,-153.0841 307.6413,-169.7465 277.4204,-193 271.8202,-197.3091 265.4222,-201.1877 259.0073,-204.5722"/>
<polygon fill="none" stroke="#000000" points="257.1072,-201.6068 249.6876,-209.17 260.2042,-207.8845 257.1072,-201.6068"/>
</g>
<!-- \\blog404de\\WetterWarnung\\WetterWarnung -->
<g id="node12" class="node">
<title>\\blog404de\\WetterWarnung\\WetterWarnung</title>
<polygon fill="none" stroke="#000000" points="653.2614,-122 551.6331,-122 551.6331,-86 653.2614,-86 653.2614,-122"/>
<text text-anchor="middle" x="602.4473" y="-100.7" font-family="Courier,monospace" font-size="11.00" fill="#000000">WetterWarnung</text>
</g>
<!-- \\blog404de\\WetterWarnung\\WetterWarnung&#45;&gt;\\blog404de\\WetterWarnung\\Save\\SaveToFile -->
<g id="edge4" class="edge">
<title>\\blog404de\\WetterWarnung\\WetterWarnung&#45;&gt;\\blog404de\\WetterWarnung\\Save\\SaveToFile</title>
<path fill="none" stroke="#000000" d="M551.5766,-97.4315C523.3368,-93.7852 488.3077,-89.2622 460.0174,-85.6093"/>
<polygon fill="none" stroke="#000000" points="460.2905,-82.1156 449.9246,-84.3062 459.394,-89.058 460.2905,-82.1156"/>
</g>
<!-- \\blog404de\\WetterWarnung\\Extensions -->
<g id="node13" class="node">
<title>\\blog404de\\WetterWarnung\\Extensions</title>
<polygon fill="none" stroke="#000000" points="643.458,-68 561.4365,-68 561.4365,-32 643.458,-32 643.458,-68"/>
<text text-anchor="middle" x="602.4473" y="-46.7" font-family="Courier,monospace" font-size="11.00" fill="#000000">Extensions</text>
</g>
<!-- \\blog404de\\Standard\\Toolbox -->
<g id="node14" class="node">
<title>\\blog404de\\Standard\\Toolbox</title>
<polygon fill="none" stroke="#000000" points="633.6551,-469 571.2394,-469 571.2394,-433 633.6551,-433 633.6551,-469"/>
<text text-anchor="middle" x="602.4473" y="-447.7" font-family="Courier,monospace" font-size="11.00" fill="#000000">Toolbox</text>
</g>
<!-- \\blog404de\\Standard\\ErrorLogging -->
<g id="node15" class="node">
<title>\\blog404de\\Standard\\ErrorLogging</title>
<polygon fill="none" stroke="#000000" points="650.1604,-415 554.7341,-415 554.7341,-379 650.1604,-379 650.1604,-415"/>
<text text-anchor="middle" x="602.4473" y="-393.7" font-family="Courier,monospace" font-size="11.00" fill="#000000">ErrorLogging</text>
</g>
</g>
</svg>
