<?xml version="1.0" encoding="UTF-8" standalone="no"?>
<!DOCTYPE svg PUBLIC "-//W3C//DTD SVG 1.1//EN"
 "http://www.w3.org/Graphics/SVG/1.1/DTD/svg11.dtd">
<!-- Generated by graphviz version 2.40.1 (20161225.0304)
 -->
<!-- Title: G Pages: 1 -->
<svg width="705pt" height="620pt"
 viewBox="0.00 0.00 704.65 620.00" xmlns="http://www.w3.org/2000/svg" xmlns:xlink="http://www.w3.org/1999/xlink">
<g id="graph0" class="graph" transform="scale(1 1) rotate(0) translate(4 616)">
<title>G</title>
<polygon fill="#ffffff" stroke="transparent" points="-4,4 -4,-616 700.6548,-616 700.6548,4 -4,4"/>
<g id="clust1" class="cluster">
<title>cluster_Global</title>
<path fill="none" stroke="#c0c0c0" d="M20,-8C20,-8 676.6548,-8 676.6548,-8 682.6548,-8 688.6548,-14 688.6548,-20 688.6548,-20 688.6548,-592 688.6548,-592 688.6548,-598 682.6548,-604 676.6548,-604 676.6548,-604 20,-604 20,-604 14,-604 8,-598 8,-592 8,-592 8,-20 8,-20 8,-14 14,-8 20,-8"/>
<text text-anchor="middle" x="348.3274" y="-591.2" font-family="Times,serif" font-size="11.00" fill="#c0c0c0">Global</text>
</g>
<g id="clust2" class="cluster">
<title>cluster_\blog404de</title>
<path fill="none" stroke="#c0c0c0" d="M28,-16C28,-16 668.6548,-16 668.6548,-16 674.6548,-16 680.6548,-22 680.6548,-28 680.6548,-28 680.6548,-565 680.6548,-565 680.6548,-571 674.6548,-577 668.6548,-577 668.6548,-577 28,-577 28,-577 22,-577 16,-571 16,-565 16,-565 16,-28 16,-28 16,-22 22,-16 28,-16"/>
<text text-anchor="middle" x="348.3274" y="-564.2" font-family="Times,serif" font-size="11.00" fill="#c0c0c0">blog404de</text>
</g>
<g id="clust3" class="cluster">
<title>cluster_\blog404de\WetterWarnung</title>
<path fill="none" stroke="#c0c0c0" d="M36,-157C36,-157 660.6548,-157 660.6548,-157 666.6548,-157 672.6548,-163 672.6548,-169 672.6548,-169 672.6548,-538 672.6548,-538 672.6548,-544 666.6548,-550 660.6548,-550 660.6548,-550 36,-550 36,-550 30,-550 24,-544 24,-538 24,-538 24,-169 24,-169 24,-163 30,-157 36,-157"/>
<text text-anchor="middle" x="348.3274" y="-537.2" font-family="Times,serif" font-size="11.00" fill="#c0c0c0">WetterWarnung</text>
</g>
<g id="clust4" class="cluster">
<title>cluster_\blog404de\WetterWarnung\Reader</title>
<path fill="none" stroke="#c0c0c0" d="M178.2075,-165C178.2075,-165 265.4204,-165 265.4204,-165 271.4204,-165 277.4204,-171 277.4204,-177 277.4204,-177 277.4204,-386 277.4204,-386 277.4204,-392 271.4204,-398 265.4204,-398 265.4204,-398 178.2075,-398 178.2075,-398 172.2075,-398 166.2075,-392 166.2075,-386 166.2075,-386 166.2075,-177 166.2075,-177 166.2075,-171 172.2075,-165 178.2075,-165"/>
<text text-anchor="middle" x="221.814" y="-385.2" font-family="Times,serif" font-size="11.00" fill="#c0c0c0">Reader</text>
</g>
<g id="clust5" class="cluster">
<title>cluster_\blog404de\WetterWarnung\Archive</title>
<path fill="none" stroke="#c0c0c0" d="M345.4204,-452C345.4204,-452 652.6548,-452 652.6548,-452 658.6548,-452 664.6548,-458 664.6548,-464 664.6548,-464 664.6548,-511 664.6548,-511 664.6548,-517 658.6548,-523 652.6548,-523 652.6548,-523 345.4204,-523 345.4204,-523 339.4204,-523 333.4204,-517 333.4204,-511 333.4204,-511 333.4204,-464 333.4204,-464 333.4204,-458 339.4204,-452 345.4204,-452"/>
<text text-anchor="middle" x="499.0376" y="-510.2" font-family="Times,serif" font-size="11.00" fill="#c0c0c0">Archive</text>
</g>
<g id="clust6" class="cluster">
<title>cluster_\blog404de\WetterWarnung\Network</title>
<path fill="none" stroke="#c0c0c0" d="M44,-327C44,-327 98.2075,-327 98.2075,-327 104.2075,-327 110.2075,-333 110.2075,-339 110.2075,-339 110.2075,-386 110.2075,-386 110.2075,-392 104.2075,-398 98.2075,-398 98.2075,-398 44,-398 44,-398 38,-398 32,-392 32,-386 32,-386 32,-339 32,-339 32,-333 38,-327 44,-327"/>
<text text-anchor="middle" x="71.1038" y="-385.2" font-family="Times,serif" font-size="11.00" fill="#c0c0c0">Network</text>
</g>
<g id="clust7" class="cluster">
<title>cluster_\blog404de\WetterWarnung\Action</title>
<path fill="none" stroke="#c0c0c0" d="M355.322,-265C355.322,-265 652.6548,-265 652.6548,-265 658.6548,-265 664.6548,-271 664.6548,-277 664.6548,-277 664.6548,-432 664.6548,-432 664.6548,-438 658.6548,-444 652.6548,-444 652.6548,-444 355.322,-444 355.322,-444 349.322,-444 343.322,-438 343.322,-432 343.322,-432 343.322,-277 343.322,-277 343.322,-271 349.322,-265 355.322,-265"/>
<text text-anchor="middle" x="503.9884" y="-431.2" font-family="Times,serif" font-size="11.00" fill="#c0c0c0">Action</text>
</g>
<g id="clust8" class="cluster">
<title>cluster_\blog404de\WetterWarnung\Save</title>
<path fill="none" stroke="#c0c0c0" d="M371.8247,-186C371.8247,-186 445.8354,-186 445.8354,-186 451.8354,-186 457.8354,-192 457.8354,-198 457.8354,-198 457.8354,-245 457.8354,-245 457.8354,-251 451.8354,-257 445.8354,-257 445.8354,-257 371.8247,-257 371.8247,-257 365.8247,-257 359.8247,-251 359.8247,-245 359.8247,-245 359.8247,-198 359.8247,-198 359.8247,-192 365.8247,-186 371.8247,-186"/>
<text text-anchor="middle" x="408.8301" y="-244.2" font-family="Times,serif" font-size="11.00" fill="#c0c0c0">Save</text>
</g>
<g id="clust9" class="cluster">
<title>cluster_\blog404de\Standard</title>
<path fill="none" stroke="#c0c0c0" d="M558.8408,-24C558.8408,-24 646.0537,-24 646.0537,-24 652.0537,-24 658.0537,-30 658.0537,-36 658.0537,-36 658.0537,-137 658.0537,-137 658.0537,-143 652.0537,-149 646.0537,-149 646.0537,-149 558.8408,-149 558.8408,-149 552.8408,-149 546.8408,-143 546.8408,-137 546.8408,-137 546.8408,-36 546.8408,-36 546.8408,-30 552.8408,-24 558.8408,-24"/>
<text text-anchor="middle" x="602.4473" y="-136.2" font-family="Times,serif" font-size="11.00" fill="#c0c0c0">Standard</text>
</g>
<!-- \\blog404de\\WetterWarnung\\Reader\\Parser -->
<g id="node1" class="node">
<title>\\blog404de\\WetterWarnung\\Reader\\Parser</title>
<polygon fill="none" stroke="#000000" points="249.4218,-371 194.2061,-371 194.2061,-335 249.4218,-335 249.4218,-371"/>
<text text-anchor="middle" x="221.814" y="-349.7" font-family="Courier,monospace" font-size="11.00" fill="#000000">Parser</text>
</g>
<!-- \\blog404de\\WetterWarnung\\Network\\Network -->
<g id="node7" class="node">
<title>\\blog404de\\WetterWarnung\\Network\\Network</title>
<polygon fill="none" stroke="#000000" points="102.3116,-371 39.8959,-371 39.8959,-335 102.3116,-335 102.3116,-371"/>
<text text-anchor="middle" x="71.1038" y="-349.7" font-family="Courier,monospace" font-size="11.00" fill="#000000">Network</text>
</g>
<!-- \\blog404de\\WetterWarnung\\Reader\\Parser&#45;&gt;\\blog404de\\WetterWarnung\\Network\\Network -->
<g id="edge1" class="edge">
<title>\\blog404de\\WetterWarnung\\Reader\\Parser&#45;&gt;\\blog404de\\WetterWarnung\\Network\\Network</title>
<path fill="none" stroke="#000000" d="M194.1714,-353C171.3169,-353 138.5154,-353 112.523,-353"/>
<polygon fill="none" stroke="#000000" points="112.2111,-349.5001 102.211,-353 112.211,-356.5001 112.2111,-349.5001"/>
</g>
<!-- \\blog404de\\WetterWarnung\\Reader\\ParserGeo -->
<g id="node2" class="node">
<title>\\blog404de\\WetterWarnung\\Reader\\ParserGeo</title>
<polygon fill="none" stroke="#000000" points="259.7248,-317 183.9032,-317 183.9032,-281 259.7248,-281 259.7248,-317"/>
<text text-anchor="middle" x="221.814" y="-295.7" font-family="Courier,monospace" font-size="11.00" fill="#000000">ParserGeo</text>
</g>
<!-- \\blog404de\\WetterWarnung\\Reader\\ParserHeader -->
<g id="node3" class="node">
<title>\\blog404de\\WetterWarnung\\Reader\\ParserHeader</title>
<polygon fill="none" stroke="#000000" points="269.5271,-263 174.1008,-263 174.1008,-227 269.5271,-227 269.5271,-263"/>
<text text-anchor="middle" x="221.814" y="-241.7" font-family="Courier,monospace" font-size="11.00" fill="#000000">ParserHeader</text>
</g>
<!-- \\blog404de\\WetterWarnung\\Reader\\ParserAlert -->
<g id="node4" class="node">
<title>\\blog404de\\WetterWarnung\\Reader\\ParserAlert</title>
<polygon fill="none" stroke="#000000" points="265.9266,-209 177.7013,-209 177.7013,-173 265.9266,-173 265.9266,-209"/>
<text text-anchor="middle" x="221.814" y="-187.7" font-family="Courier,monospace" font-size="11.00" fill="#000000">ParserAlert</text>
</g>
<!-- \\blog404de\\WetterWarnung\\Archive\\ArchiveToMySQL -->
<g id="node5" class="node">
<title>\\blog404de\\WetterWarnung\\Archive\\ArchiveToMySQL</title>
<polygon fill="none" stroke="#000000" points="656.8631,-496 548.0314,-496 548.0314,-460 656.8631,-460 656.8631,-496"/>
<text text-anchor="middle" x="602.4473" y="-474.7" font-family="Courier,monospace" font-size="11.00" fill="#000000">ArchiveToMySQL</text>
</g>
<!-- \\blog404de\\WetterWarnung\\Archive\\ArchiveToInterface -->
<g id="node6" class="node">
<title>\\blog404de\\WetterWarnung\\Archive\\ArchiveToInterface</title>
<polygon fill="none" stroke="#000000" points="476.1495,-496 341.5106,-496 341.5106,-460 476.1495,-460 476.1495,-496"/>
<text text-anchor="middle" x="408.8301" y="-474.7" font-family="Courier,monospace" font-size="11.00" fill="#000000">ArchiveToInterface</text>
</g>
<!-- \\blog404de\\WetterWarnung\\Archive\\ArchiveToMySQL&#45;&gt;\\blog404de\\WetterWarnung\\Archive\\ArchiveToInterface -->
<g id="edge2" class="edge">
<title>\\blog404de\\WetterWarnung\\Archive\\ArchiveToMySQL&#45;&gt;\\blog404de\\WetterWarnung\\Archive\\ArchiveToInterface</title>
<path fill="none" stroke="#000000" stroke-dasharray="1,5" d="M547.9988,-478C528.8708,-478 506.9943,-478 486.3395,-478"/>
<polygon fill="none" stroke="#000000" points="486.3155,-474.5001 476.3154,-478 486.3154,-481.5001 486.3155,-474.5001"/>
</g>
<!-- \\blog404de\\WetterWarnung\\Action\\SendToITFFF -->
<g id="node8" class="node">
<title>\\blog404de\\WetterWarnung\\Action\\SendToITFFF</title>
<polygon fill="none" stroke="#000000" points="646.5599,-417 558.3346,-417 558.3346,-381 646.5599,-381 646.5599,-417"/>
<text text-anchor="middle" x="602.4473" y="-395.7" font-family="Courier,monospace" font-size="11.00" fill="#000000">SendToITFFF</text>
</g>
<!-- \\blog404de\\WetterWarnung\\Action\\SendToInterface -->
<g id="node11" class="node">
<title>\\blog404de\\WetterWarnung\\Action\\SendToInterface</title>
<polygon fill="none" stroke="#000000" points="466.3462,-363 351.314,-363 351.314,-327 466.3462,-327 466.3462,-363"/>
<text text-anchor="middle" x="408.8301" y="-341.7" font-family="Courier,monospace" font-size="11.00" fill="#000000">SendToInterface</text>
</g>
<!-- \\blog404de\\WetterWarnung\\Action\\SendToITFFF&#45;&gt;\\blog404de\\WetterWarnung\\Action\\SendToInterface -->
<g id="edge3" class="edge">
<title>\\blog404de\\WetterWarnung\\Action\\SendToITFFF&#45;&gt;\\blog404de\\WetterWarnung\\Action\\SendToInterface</title>
<path fill="none" stroke="#000000" stroke-dasharray="1,5" d="M558.0276,-386.6113C533.8651,-379.8724 503.4717,-371.3956 476.4323,-363.8543"/>
<polygon fill="none" stroke="#000000" points="477.2126,-360.4384 466.6399,-361.1232 475.332,-367.1811 477.2126,-360.4384"/>
</g>
<!-- \\blog404de\\WetterWarnung\\Action\\SendToPushover -->
<g id="node9" class="node">
<title>\\blog404de\\WetterWarnung\\Action\\SendToPushover</title>
<polygon fill="none" stroke="#000000" points="656.8631,-363 548.0314,-363 548.0314,-327 656.8631,-327 656.8631,-363"/>
<text text-anchor="middle" x="602.4473" y="-341.7" font-family="Courier,monospace" font-size="11.00" fill="#000000">SendToPushover</text>
</g>
<!-- \\blog404de\\WetterWarnung\\Action\\SendToPushover&#45;&gt;\\blog404de\\WetterWarnung\\Action\\SendToInterface -->
<g id="edge4" class="edge">
<title>\\blog404de\\WetterWarnung\\Action\\SendToPushover&#45;&gt;\\blog404de\\WetterWarnung\\Action\\SendToInterface</title>
<path fill="none" stroke="#000000" stroke-dasharray="1,5" d="M547.9988,-345C525.8818,-345 500.0904,-345 476.7617,-345"/>
<polygon fill="none" stroke="#000000" points="476.5867,-341.5001 466.5867,-345 476.5866,-348.5001 476.5867,-341.5001"/>
</g>
<!-- \\blog404de\\WetterWarnung\\Action\\SendToTwitter -->
<g id="node10" class="node">
<title>\\blog404de\\WetterWarnung\\Action\\SendToTwitter</title>
<polygon fill="none" stroke="#000000" points="653.2614,-309 551.6331,-309 551.6331,-273 653.2614,-273 653.2614,-309"/>
<text text-anchor="middle" x="602.4473" y="-287.7" font-family="Courier,monospace" font-size="11.00" fill="#000000">SendToTwitter</text>
</g>
<!-- \\blog404de\\WetterWarnung\\Action\\SendToTwitter&#45;&gt;\\blog404de\\WetterWarnung\\Action\\SendToInterface -->
<g id="edge5" class="edge">
<title>\\blog404de\\WetterWarnung\\Action\\SendToTwitter&#45;&gt;\\blog404de\\WetterWarnung\\Action\\SendToInterface</title>
<path fill="none" stroke="#000000" stroke-dasharray="1,5" d="M551.5766,-305.1879C528.5301,-311.6155 500.9619,-319.3044 476.2248,-326.2036"/>
<polygon fill="none" stroke="#000000" points="475.2327,-322.8466 466.5406,-328.9045 477.1133,-329.5893 475.2327,-322.8466"/>
</g>
<!-- \\blog404de\\WetterWarnung\\Save\\SaveToFile -->
<g id="node12" class="node">
<title>\\blog404de\\WetterWarnung\\Save\\SaveToFile</title>
<polygon fill="none" stroke="#000000" points="449.8408,-230 367.8193,-230 367.8193,-194 449.8408,-194 449.8408,-230"/>
<text text-anchor="middle" x="408.8301" y="-208.7" font-family="Courier,monospace" font-size="11.00" fill="#000000">SaveToFile</text>
</g>
<!-- \\blog404de\\WetterWarnung\\Save\\SaveToFile&#45;&gt;\\blog404de\\WetterWarnung\\Reader\\Parser -->
<g id="edge7" class="edge">
<title>\\blog404de\\WetterWarnung\\Save\\SaveToFile&#45;&gt;\\blog404de\\WetterWarnung\\Reader\\Parser</title>
<path fill="none" stroke="#000000" d="M376.594,-230.1508C362.6709,-238.68 346.5908,-249.4968 333.4204,-261 304.7009,-286.0841 307.6413,-302.7465 277.4204,-326 271.8202,-330.3091 265.4222,-334.1877 259.0073,-337.5722"/>
<polygon fill="none" stroke="#000000" points="257.1072,-334.6068 249.6876,-342.17 260.2042,-340.8845 257.1072,-334.6068"/>
</g>
<!-- \\blog404de\\WetterWarnung\\WetterWarnung -->
<g id="node13" class="node">
<title>\\blog404de\\WetterWarnung\\WetterWarnung</title>
<polygon fill="none" stroke="#000000" points="653.2614,-255 551.6331,-255 551.6331,-219 653.2614,-219 653.2614,-255"/>
<text text-anchor="middle" x="602.4473" y="-233.7" font-family="Courier,monospace" font-size="11.00" fill="#000000">WetterWarnung</text>
</g>
<!-- \\blog404de\\WetterWarnung\\WetterWarnung&#45;&gt;\\blog404de\\WetterWarnung\\Save\\SaveToFile -->
<g id="edge6" class="edge">
<title>\\blog404de\\WetterWarnung\\WetterWarnung&#45;&gt;\\blog404de\\WetterWarnung\\Save\\SaveToFile</title>
<path fill="none" stroke="#000000" d="M551.5766,-230.4315C523.3368,-226.7852 488.3077,-222.2622 460.0174,-218.6093"/>
<polygon fill="none" stroke="#000000" points="460.2905,-215.1156 449.9246,-217.3062 459.394,-222.058 460.2905,-215.1156"/>
</g>
<!-- \\blog404de\\WetterWarnung\\Extensions -->
<g id="node14" class="node">
<title>\\blog404de\\WetterWarnung\\Extensions</title>
<polygon fill="none" stroke="#000000" points="643.458,-201 561.4365,-201 561.4365,-165 643.458,-165 643.458,-201"/>
<text text-anchor="middle" x="602.4473" y="-179.7" font-family="Courier,monospace" font-size="11.00" fill="#000000">Extensions</text>
</g>
<!-- \\blog404de\\Standard\\ErrorLogging -->
<g id="node15" class="node">
<title>\\blog404de\\Standard\\ErrorLogging</title>
<polygon fill="none" stroke="#000000" points="650.1604,-122 554.7341,-122 554.7341,-86 650.1604,-86 650.1604,-122"/>
<text text-anchor="middle" x="602.4473" y="-100.7" font-family="Courier,monospace" font-size="11.00" fill="#000000">ErrorLogging</text>
</g>
<!-- \\blog404de\\Standard\\Toolbox -->
<g id="node16" class="node">
<title>\\blog404de\\Standard\\Toolbox</title>
<polygon fill="none" stroke="#000000" points="633.6551,-68 571.2394,-68 571.2394,-32 633.6551,-32 633.6551,-68"/>
<text text-anchor="middle" x="602.4473" y="-46.7" font-family="Courier,monospace" font-size="11.00" fill="#000000">Toolbox</text>
</g>
</g>
</svg>
