<?xml version="1.0" encoding="UTF-8" standalone="no"?>
<!DOCTYPE svg PUBLIC "-//W3C//DTD SVG 1.1//EN"
 "http://www.w3.org/Graphics/SVG/1.1/DTD/svg11.dtd">
<!-- Generated by graphviz version 2.43.0 (0)
 -->
<!-- Title: G Pages: 1 -->
<svg width="705pt" height="620pt"
 viewBox="0.00 0.00 704.65 620.00" xmlns="http://www.w3.org/2000/svg" xmlns:xlink="http://www.w3.org/1999/xlink">
<g id="graph0" class="graph" transform="scale(1 1) rotate(0) translate(4 616)">
<title>G</title>
<polygon fill="white" stroke="transparent" points="-4,4 -4,-616 700.65,-616 700.65,4 -4,4"/>
<g id="clust1" class="cluster">
<title>cluster_Global</title>
<path fill="none" stroke="gray" d="M20,-8C20,-8 676.65,-8 676.65,-8 682.65,-8 688.65,-14 688.65,-20 688.65,-20 688.65,-592 688.65,-592 688.65,-598 682.65,-604 676.65,-604 676.65,-604 20,-604 20,-604 14,-604 8,-598 8,-592 8,-592 8,-20 8,-20 8,-14 14,-8 20,-8"/>
<text text-anchor="middle" x="348.33" y="-591.2" font-family="Times,serif" font-size="11.00" fill="gray">Global</text>
</g>
<g id="clust2" class="cluster">
<title>cluster_\blog404de</title>
<path fill="none" stroke="gray" d="M28,-16C28,-16 668.65,-16 668.65,-16 674.65,-16 680.65,-22 680.65,-28 680.65,-28 680.65,-565 680.65,-565 680.65,-571 674.65,-577 668.65,-577 668.65,-577 28,-577 28,-577 22,-577 16,-571 16,-565 16,-565 16,-28 16,-28 16,-22 22,-16 28,-16"/>
<text text-anchor="middle" x="348.33" y="-564.2" font-family="Times,serif" font-size="11.00" fill="gray">blog404de</text>
</g>
<g id="clust3" class="cluster">
<title>cluster_\blog404de\WetterWarnung</title>
<path fill="none" stroke="gray" d="M36,-157C36,-157 660.65,-157 660.65,-157 666.65,-157 672.65,-163 672.65,-169 672.65,-169 672.65,-538 672.65,-538 672.65,-544 666.65,-550 660.65,-550 660.65,-550 36,-550 36,-550 30,-550 24,-544 24,-538 24,-538 24,-169 24,-169 24,-163 30,-157 36,-157"/>
<text text-anchor="middle" x="348.33" y="-537.2" font-family="Times,serif" font-size="11.00" fill="gray">WetterWarnung</text>
</g>
<g id="clust4" class="cluster">
<title>cluster_\blog404de\WetterWarnung\Action</title>
<path fill="none" stroke="gray" d="M355.32,-344C355.32,-344 652.65,-344 652.65,-344 658.65,-344 664.65,-350 664.65,-356 664.65,-356 664.65,-511 664.65,-511 664.65,-517 658.65,-523 652.65,-523 652.65,-523 355.32,-523 355.32,-523 349.32,-523 343.32,-517 343.32,-511 343.32,-511 343.32,-356 343.32,-356 343.32,-350 349.32,-344 355.32,-344"/>
<text text-anchor="middle" x="503.99" y="-510.2" font-family="Times,serif" font-size="11.00" fill="gray">Action</text>
</g>
<g id="clust5" class="cluster">
<title>cluster_\blog404de\WetterWarnung\Reader</title>
<path fill="none" stroke="gray" d="M178.21,-165C178.21,-165 265.42,-165 265.42,-165 271.42,-165 277.42,-171 277.42,-177 277.42,-177 277.42,-386 277.42,-386 277.42,-392 271.42,-398 265.42,-398 265.42,-398 178.21,-398 178.21,-398 172.21,-398 166.21,-392 166.21,-386 166.21,-386 166.21,-177 166.21,-177 166.21,-171 172.21,-165 178.21,-165"/>
<text text-anchor="middle" x="221.81" y="-385.2" font-family="Times,serif" font-size="11.00" fill="gray">Reader</text>
</g>
<g id="clust6" class="cluster">
<title>cluster_\blog404de\WetterWarnung\Archive</title>
<path fill="none" stroke="gray" d="M345.42,-265C345.42,-265 652.65,-265 652.65,-265 658.65,-265 664.65,-271 664.65,-277 664.65,-277 664.65,-324 664.65,-324 664.65,-330 658.65,-336 652.65,-336 652.65,-336 345.42,-336 345.42,-336 339.42,-336 333.42,-330 333.42,-324 333.42,-324 333.42,-277 333.42,-277 333.42,-271 339.42,-265 345.42,-265"/>
<text text-anchor="middle" x="499.04" y="-323.2" font-family="Times,serif" font-size="11.00" fill="gray">Archive</text>
</g>
<g id="clust7" class="cluster">
<title>cluster_\blog404de\WetterWarnung\Save</title>
<path fill="none" stroke="gray" d="M371.82,-186C371.82,-186 445.84,-186 445.84,-186 451.84,-186 457.84,-192 457.84,-198 457.84,-198 457.84,-245 457.84,-245 457.84,-251 451.84,-257 445.84,-257 445.84,-257 371.82,-257 371.82,-257 365.82,-257 359.82,-251 359.82,-245 359.82,-245 359.82,-198 359.82,-198 359.82,-192 365.82,-186 371.82,-186"/>
<text text-anchor="middle" x="408.83" y="-244.2" font-family="Times,serif" font-size="11.00" fill="gray">Save</text>
</g>
<g id="clust8" class="cluster">
<title>cluster_\blog404de\WetterWarnung\Network</title>
<path fill="none" stroke="gray" d="M44,-327C44,-327 98.21,-327 98.21,-327 104.21,-327 110.21,-333 110.21,-339 110.21,-339 110.21,-386 110.21,-386 110.21,-392 104.21,-398 98.21,-398 98.21,-398 44,-398 44,-398 38,-398 32,-392 32,-386 32,-386 32,-339 32,-339 32,-333 38,-327 44,-327"/>
<text text-anchor="middle" x="71.1" y="-385.2" font-family="Times,serif" font-size="11.00" fill="gray">Network</text>
</g>
<g id="clust9" class="cluster">
<title>cluster_\blog404de\Standard</title>
<path fill="none" stroke="gray" d="M558.84,-24C558.84,-24 646.05,-24 646.05,-24 652.05,-24 658.05,-30 658.05,-36 658.05,-36 658.05,-137 658.05,-137 658.05,-143 652.05,-149 646.05,-149 646.05,-149 558.84,-149 558.84,-149 552.84,-149 546.84,-143 546.84,-137 546.84,-137 546.84,-36 546.84,-36 546.84,-30 552.84,-24 558.84,-24"/>
<text text-anchor="middle" x="602.45" y="-136.2" font-family="Times,serif" font-size="11.00" fill="gray">Standard</text>
</g>
<!-- \\blog404de\\WetterWarnung\\Action\\SendToPushover -->
<g id="node1" class="node">
<title>\\blog404de\\WetterWarnung\\Action\\SendToPushover</title>
<polygon fill="none" stroke="black" points="656.86,-496 548.03,-496 548.03,-460 656.86,-460 656.86,-496"/>
<text text-anchor="middle" x="602.45" y="-474.7" font-family="Courier,monospace" font-size="11.00">SendToPushover</text>
</g>
<!-- \\blog404de\\WetterWarnung\\Action\\SendToInterface -->
<g id="node4" class="node">
<title>\\blog404de\\WetterWarnung\\Action\\SendToInterface</title>
<polygon fill="none" stroke="black" points="466.35,-442 351.31,-442 351.31,-406 466.35,-406 466.35,-442"/>
<text text-anchor="middle" x="408.83" y="-420.7" font-family="Courier,monospace" font-size="11.00">SendToInterface</text>
</g>
<!-- \\blog404de\\WetterWarnung\\Action\\SendToPushover&#45;&gt;\\blog404de\\WetterWarnung\\Action\\SendToInterface -->
<g id="edge1" class="edge">
<title>\\blog404de\\WetterWarnung\\Action\\SendToPushover&#45;&gt;\\blog404de\\WetterWarnung\\Action\\SendToInterface</title>
<path fill="none" stroke="black" stroke-dasharray="1,5" d="M548.07,-462.96C525.88,-456.7 499.89,-449.38 476.46,-442.78"/>
<polygon fill="none" stroke="black" points="477.18,-439.34 466.6,-440 475.28,-446.08 477.18,-439.34"/>
</g>
<!-- \\blog404de\\WetterWarnung\\Action\\SendToITFFF -->
<g id="node2" class="node">
<title>\\blog404de\\WetterWarnung\\Action\\SendToITFFF</title>
<polygon fill="none" stroke="black" points="646.56,-442 558.33,-442 558.33,-406 646.56,-406 646.56,-442"/>
<text text-anchor="middle" x="602.45" y="-420.7" font-family="Courier,monospace" font-size="11.00">SendToITFFF</text>
</g>
<!-- \\blog404de\\WetterWarnung\\Action\\SendToITFFF&#45;&gt;\\blog404de\\WetterWarnung\\Action\\SendToInterface -->
<g id="edge2" class="edge">
<title>\\blog404de\\WetterWarnung\\Action\\SendToITFFF&#45;&gt;\\blog404de\\WetterWarnung\\Action\\SendToInterface</title>
<path fill="none" stroke="black" stroke-dasharray="1,5" d="M557.97,-424C533.98,-424 503.68,-424 476.74,-424"/>
<polygon fill="none" stroke="black" points="476.6,-420.5 466.6,-424 476.6,-427.5 476.6,-420.5"/>
</g>
<!-- \\blog404de\\WetterWarnung\\Action\\SendToTwitter -->
<g id="node3" class="node">
<title>\\blog404de\\WetterWarnung\\Action\\SendToTwitter</title>
<polygon fill="none" stroke="black" points="653.26,-388 551.63,-388 551.63,-352 653.26,-352 653.26,-388"/>
<text text-anchor="middle" x="602.45" y="-366.7" font-family="Courier,monospace" font-size="11.00">SendToTwitter</text>
</g>
<!-- \\blog404de\\WetterWarnung\\Action\\SendToTwitter&#45;&gt;\\blog404de\\WetterWarnung\\Action\\SendToInterface -->
<g id="edge6" class="edge">
<title>\\blog404de\\WetterWarnung\\Action\\SendToTwitter&#45;&gt;\\blog404de\\WetterWarnung\\Action\\SendToInterface</title>
<path fill="none" stroke="black" stroke-dasharray="1,5" d="M551.6,-384.05C528.6,-390.53 500.96,-398.32 476.22,-405.29"/>
<polygon fill="none" stroke="black" points="475.21,-401.94 466.54,-408.02 477.11,-408.68 475.21,-401.94"/>
</g>
<!-- \\blog404de\\WetterWarnung\\Reader\\Parser -->
<g id="node5" class="node">
<title>\\blog404de\\WetterWarnung\\Reader\\Parser</title>
<polygon fill="none" stroke="black" points="249.42,-371 194.21,-371 194.21,-335 249.42,-335 249.42,-371"/>
<text text-anchor="middle" x="221.81" y="-349.7" font-family="Courier,monospace" font-size="11.00">Parser</text>
</g>
<!-- \\blog404de\\WetterWarnung\\Network\\Network -->
<g id="node12" class="node">
<title>\\blog404de\\WetterWarnung\\Network\\Network</title>
<polygon fill="none" stroke="black" points="102.31,-371 39.9,-371 39.9,-335 102.31,-335 102.31,-371"/>
<text text-anchor="middle" x="71.1" y="-349.7" font-family="Courier,monospace" font-size="11.00">Network</text>
</g>
<!-- \\blog404de\\WetterWarnung\\Reader\\Parser&#45;&gt;\\blog404de\\WetterWarnung\\Network\\Network -->
<g id="edge7" class="edge">
<title>\\blog404de\\WetterWarnung\\Reader\\Parser&#45;&gt;\\blog404de\\WetterWarnung\\Network\\Network</title>
<path fill="none" stroke="black" d="M193.88,-353C171.23,-353 138.48,-353 112.66,-353"/>
<polygon fill="none" stroke="black" points="112.42,-349.5 102.42,-353 112.42,-356.5 112.42,-349.5"/>
</g>
<!-- \\blog404de\\WetterWarnung\\Reader\\ParserHeader -->
<g id="node6" class="node">
<title>\\blog404de\\WetterWarnung\\Reader\\ParserHeader</title>
<polygon fill="none" stroke="black" points="269.53,-317 174.1,-317 174.1,-281 269.53,-281 269.53,-317"/>
<text text-anchor="middle" x="221.81" y="-295.7" font-family="Courier,monospace" font-size="11.00">ParserHeader</text>
</g>
<!-- \\blog404de\\WetterWarnung\\Reader\\ParserGeo -->
<g id="node7" class="node">
<title>\\blog404de\\WetterWarnung\\Reader\\ParserGeo</title>
<polygon fill="none" stroke="black" points="259.72,-263 183.9,-263 183.9,-227 259.72,-227 259.72,-263"/>
<text text-anchor="middle" x="221.81" y="-241.7" font-family="Courier,monospace" font-size="11.00">ParserGeo</text>
</g>
<!-- \\blog404de\\WetterWarnung\\Reader\\ParserAlert -->
<g id="node8" class="node">
<title>\\blog404de\\WetterWarnung\\Reader\\ParserAlert</title>
<polygon fill="none" stroke="black" points="265.93,-209 177.7,-209 177.7,-173 265.93,-173 265.93,-209"/>
<text text-anchor="middle" x="221.81" y="-187.7" font-family="Courier,monospace" font-size="11.00">ParserAlert</text>
</g>
<!-- \\blog404de\\WetterWarnung\\Archive\\ArchiveToMySQL -->
<g id="node9" class="node">
<title>\\blog404de\\WetterWarnung\\Archive\\ArchiveToMySQL</title>
<polygon fill="none" stroke="black" points="656.86,-309 548.03,-309 548.03,-273 656.86,-273 656.86,-309"/>
<text text-anchor="middle" x="602.45" y="-287.7" font-family="Courier,monospace" font-size="11.00">ArchiveToMySQL</text>
</g>
<!-- \\blog404de\\WetterWarnung\\Archive\\ArchiveToInterface -->
<g id="node10" class="node">
<title>\\blog404de\\WetterWarnung\\Archive\\ArchiveToInterface</title>
<polygon fill="none" stroke="black" points="476.15,-309 341.51,-309 341.51,-273 476.15,-273 476.15,-309"/>
<text text-anchor="middle" x="408.83" y="-287.7" font-family="Courier,monospace" font-size="11.00">ArchiveToInterface</text>
</g>
<!-- \\blog404de\\WetterWarnung\\Archive\\ArchiveToMySQL&#45;&gt;\\blog404de\\WetterWarnung\\Archive\\ArchiveToInterface -->
<g id="edge3" class="edge">
<title>\\blog404de\\WetterWarnung\\Archive\\ArchiveToMySQL&#45;&gt;\\blog404de\\WetterWarnung\\Archive\\ArchiveToInterface</title>
<path fill="none" stroke="black" stroke-dasharray="1,5" d="M548.07,-291C528.94,-291 506.99,-291 486.29,-291"/>
<polygon fill="none" stroke="black" points="486.25,-287.5 476.25,-291 486.25,-294.5 486.25,-287.5"/>
</g>
<!-- \\blog404de\\WetterWarnung\\Save\\SaveToFile -->
<g id="node11" class="node">
<title>\\blog404de\\WetterWarnung\\Save\\SaveToFile</title>
<polygon fill="none" stroke="black" points="449.84,-230 367.82,-230 367.82,-194 449.84,-194 449.84,-230"/>
<text text-anchor="middle" x="408.83" y="-208.7" font-family="Courier,monospace" font-size="11.00">SaveToFile</text>
</g>
<!-- \\blog404de\\WetterWarnung\\Save\\SaveToFile&#45;&gt;\\blog404de\\WetterWarnung\\Reader\\Parser -->
<g id="edge4" class="edge">
<title>\\blog404de\\WetterWarnung\\Save\\SaveToFile&#45;&gt;\\blog404de\\WetterWarnung\\Reader\\Parser</title>
<path fill="none" stroke="black" d="M376.04,-230.21C362.3,-238.76 346.43,-249.56 333.42,-261 304.78,-286.17 307.56,-302.64 277.42,-326 271.8,-330.35 265.38,-334.28 258.95,-337.71"/>
<polygon fill="none" stroke="black" points="257.01,-334.76 249.62,-342.36 260.13,-341.03 257.01,-334.76"/>
</g>
<!-- \\blog404de\\WetterWarnung\\WetterWarnung -->
<g id="node13" class="node">
<title>\\blog404de\\WetterWarnung\\WetterWarnung</title>
<polygon fill="none" stroke="black" points="653.26,-255 551.63,-255 551.63,-219 653.26,-219 653.26,-255"/>
<text text-anchor="middle" x="602.45" y="-233.7" font-family="Courier,monospace" font-size="11.00">WetterWarnung</text>
</g>
<!-- \\blog404de\\WetterWarnung\\WetterWarnung&#45;&gt;\\blog404de\\WetterWarnung\\Save\\SaveToFile -->
<g id="edge5" class="edge">
<title>\\blog404de\\WetterWarnung\\WetterWarnung&#45;&gt;\\blog404de\\WetterWarnung\\Save\\SaveToFile</title>
<path fill="none" stroke="black" d="M551.6,-230.5C523.46,-226.82 488.37,-222.25 460.15,-218.56"/>
<polygon fill="none" stroke="black" points="460.45,-215.08 450.09,-217.25 459.55,-222.02 460.45,-215.08"/>
</g>
<!-- \\blog404de\\WetterWarnung\\Extensions -->
<g id="node14" class="node">
<title>\\blog404de\\WetterWarnung\\Extensions</title>
<polygon fill="none" stroke="black" points="643.46,-201 561.44,-201 561.44,-165 643.46,-165 643.46,-201"/>
<text text-anchor="middle" x="602.45" y="-179.7" font-family="Courier,monospace" font-size="11.00">Extensions</text>
</g>
<!-- \\blog404de\\Standard\\Toolbox -->
<g id="node15" class="node">
<title>\\blog404de\\Standard\\Toolbox</title>
<polygon fill="none" stroke="black" points="633.66,-122 571.24,-122 571.24,-86 633.66,-86 633.66,-122"/>
<text text-anchor="middle" x="602.45" y="-100.7" font-family="Courier,monospace" font-size="11.00">Toolbox</text>
</g>
<!-- \\blog404de\\Standard\\ErrorLogging -->
<g id="node16" class="node">
<title>\\blog404de\\Standard\\ErrorLogging</title>
<polygon fill="none" stroke="black" points="650.16,-68 554.73,-68 554.73,-32 650.16,-32 650.16,-68"/>
<text text-anchor="middle" x="602.45" y="-46.7" font-family="Courier,monospace" font-size="11.00">ErrorLogging</text>
</g>
</g>
</svg>
